<svg width="446" height="186" viewBox="0 0 446 186" fill="none" xmlns="http://www.w3.org/2000/svg">
<line x1="1" y1="185.5" x2="445" y2="185.5" stroke="black"/>
<line x1="0.5" y1="186" x2="0.5" y2="150" stroke="black"/>
<line x1="0.843881" y1="140.525" x2="143.844" y2="93.525" stroke="black"/>
<line x1="143.478" y1="92.8544" x2="150.478" y2="115.854" stroke="black"/>
<line x1="150.5" y1="115" x2="150.5" y2="122" stroke="black"/>
<line x1="444.5" y1="186" x2="444.5" y2="134" stroke="black"/>
<line x1="444.5" y1="117" x2="444.5" stroke="black"/>
<line x1="445.121" y1="0.485071" x2="377.121" y2="17.4851" stroke="black"/>
<line x1="377.5" y1="17" x2="377.5" y2="117" stroke="black"/>
<line x1="378" y1="117.5" x2="210" y2="117.5" stroke="black"/>
<line x1="209.5" y1="118" x2="209.5" y2="108" stroke="black"/>
<line x1="209.53" y1="108.171" x2="205.53" y2="97.1709" stroke="black"/>
<line x1="206.156" y1="97.4752" x2="151.156" y2="115.475" stroke="black"/>
<line x1="24.5" y1="186" x2="24.5" y2="151" stroke="black"/>
<line x1="86.5" y1="185" x2="86.5" y2="150" stroke="black"/>
<line x1="150.5" y1="186" x2="150.5" y2="151" stroke="black"/>
<line x1="211.5" y1="185" x2="211.5" y2="149" stroke="black"/>
<line x1="272.5" y1="185" x2="272.5" y2="158" stroke="black"/>
<line x1="292.5" y1="185" x2="292.5" y2="133" stroke="black"/>
<line x1="356.5" y1="186" x2="356.5" y2="134" stroke="black"/>
<line x1="67" y1="150.5" x2="24" y2="150.5" stroke="black"/>
<line x1="151" y1="150.5" x2="106" y2="150.5" stroke="black"/>
<line x1="87" y1="150.5" x2="83" y2="150.5" stroke="black"/>
<line x1="91" y1="150.5" x2="87" y2="150.5" stroke="black"/>
<line x1="150.5" y1="151" x2="150.5" y2="132" stroke="black"/>
<line x1="150" y1="148.5" x2="197" y2="148.5" stroke="black"/>
<line x1="212" y1="148.5" x2="208" y2="148.5" stroke="black"/>
<line x1="212" y1="148.5" x2="234" y2="148.5" stroke="black"/>
<line x1="293" y1="148.5" x2="241" y2="148.5" stroke="black"/>
<line x1="272.5" y1="148" x2="272.5" y2="153" stroke="black"/>
<line x1="293" y1="133.5" x2="313" y2="133.5" stroke="black"/>
<line x1="337" y1="133.5" x2="357" y2="133.5" stroke="black"/>
<line x1="378.5" y1="133" x2="378.5" y2="185" stroke="black"/>
<line x1="408.5" y1="9" x2="408.5" y2="26" stroke="black"/>
<line x1="408.5" y1="30" x2="408.5" y2="39" stroke="black"/>
<line x1="408.5" y1="43" x2="408.5" y2="51" stroke="black"/>
<line x1="377" y1="113.5" x2="409" y2="113.5" stroke="black"/>
<line x1="377" y1="93.5" x2="409" y2="93.5" stroke="black"/>
<line x1="377" y1="71.5" x2="409" y2="71.5" stroke="black"/>
<line x1="408.5" y1="94" x2="408.5" y2="101" stroke="black"/>
<line x1="408.5" y1="84" x2="408.5" y2="93" stroke="black"/>
<line x1="408.5" y1="55" x2="408.5" y2="81" stroke="black"/>
<line x1="408.5" y1="104" x2="408.5" y2="113" stroke="black"/>
<line x1="0.5" y1="140" x2="0.5" y2="145" stroke="black"/>
</svg>
