<svg width="723" height="504" viewBox="0 0 723 504" fill="none" xmlns="http://www.w3.org/2000/svg">
<rect width="723" height="504" fill="white"/>
<rect width="723" height="504" fill="#CEE7EE"/>
<line x1="77.5" y1="504" x2="77.5" y2="463" stroke="black"/>
<line x1="121.5" y1="504" x2="121.5" y2="463" stroke="black"/>
<line x1="586.5" y1="504" x2="586.5" y2="463" stroke="black"/>
<line x1="630.5" y1="504" x2="630.5" y2="463" stroke="black"/>
<line x1="71.5" y1="302" x2="71.5" y2="372" stroke="black"/>
<line x1="99.5" y1="302" x2="99.5" y2="372" stroke="black"/>
<line x1="129.5" y1="302" x2="129.5" y2="372" stroke="black"/>
<line x1="159.5" y1="302" x2="159.5" y2="372" stroke="black"/>
<line x1="189.5" y1="302" x2="189.5" y2="372" stroke="black"/>
<line x1="219.5" y1="302" x2="219.5" y2="372" stroke="black"/>
<line x1="249.5" y1="302" x2="249.5" y2="372" stroke="black"/>
<rect x="237.5" y="477.5" width="247" height="26" stroke="black"/>
<line x1="723" y1="426.5" x2="631" y2="426.5" stroke="black"/>
<line x1="630.5" y1="426" x2="630.5" y2="371" stroke="black"/>
<line x1="292" y1="336.5" x2="581" y2="336.5" stroke="black"/>
<line x1="292" y1="301.5" x2="581" y2="301.5" stroke="black"/>
<line x1="292" y1="264.5" x2="581" y2="264.5" stroke="black"/>
<line x1="292" y1="229.5" x2="581" y2="229.5" stroke="black"/>
<line x1="292" y1="138.5" x2="581" y2="138.5" stroke="black"/>
<line x1="292" y1="104.5" x2="581" y2="104.5" stroke="black"/>
<line y1="39.5" x2="723" y2="39.5" stroke="black"/>
<line x1="249" y1="370.5" x2="581" y2="370.5" stroke="black"/>
<rect x="661.5" y="310.5" width="31" height="88" stroke="black"/>
<rect x="661.5" y="190.5" width="31" height="88" stroke="black"/>
<rect x="661.5" y="70.5" width="31" height="88" stroke="black"/>
<line x1="133.5" y1="2.18557e-08" x2="133.5" y2="40" stroke="black"/>
<line x1="231.5" y1="2.18557e-08" x2="231.5" y2="40" stroke="black"/>
<line x1="331.5" y1="2.18557e-08" x2="331.5" y2="40" stroke="black"/>
<line x1="436.5" y1="2.18557e-08" x2="436.5" y2="40" stroke="black"/>
<line x1="661.5" y1="2.18557e-08" x2="661.5" y2="40" stroke="black"/>
<line x1="35" y1="80.5" x2="217" y2="80.5" stroke="black"/>
<line x1="62" y1="119.5" x2="244" y2="119.5" stroke="black"/>
<line x1="35" y1="158.5" x2="217" y2="158.5" stroke="black"/>
<line x1="62" y1="197.5" x2="244" y2="197.5" stroke="black"/>
<line x1="35" y1="238.5" x2="217" y2="238.5" stroke="black"/>
<line y1="370.5" x2="71" y2="370.5" stroke="black"/>
<line y1="301.5" x2="71" y2="301.5" stroke="black"/>
</svg>
