<svg xmlns="http://www.w3.org/2000/svg" xmlns:xlink="http://www.w3.org/1999/xlink" version="1.1" x="0px" y="0px" viewBox="0 0 54.691 68.36375000000001" enable-background="new 0 0 54.691 54.691" xml:space="preserve"><g><path d="M-4318.56-68.404c-43.25,0-78.438,35.186-78.438,78.435c0,43.252,35.188,78.439,78.438,78.439s78.436-35.188,78.436-78.439   C-4240.124-33.218-4275.31-68.404-4318.56-68.404z M-4318.867-35.187c13.682,0,24.771,11.092,24.771,24.771   c0,13.681-11.092,24.771-24.771,24.771c-13.683,0-24.771-11.092-24.771-24.771C-4343.639-24.095-4332.55-35.187-4318.867-35.187z    M-4274.686,65.074c-12.042,9.627-27.292,15.396-43.874,15.396c-16.562,0-31.797-5.75-43.834-15.354   c1.116-19.851,14.187-39.903,30.178-39.903h27.332c16.024,0,29.128,19.324,30.197,39.206c0.001,0.002,0.001,0.004,0.001,0.006   C-4274.686,64.427-4274.686,64.786-4274.686,65.074z"/></g><g><circle fill="#6BCCFF" cx="27.443" cy="21.101" r="7.807"/><path fill="#6BCCFF" d="M27.345,2.659c-13.612,0-24.687,11.074-24.687,24.686c0,13.613,11.074,24.688,24.687,24.688   s24.687-11.074,24.687-24.688C52.032,13.733,40.958,2.659,27.345,2.659z M40.915,44.937c-0.269-6.156-4.318-12.13-9.278-12.13   h-8.387c-5,0-9.074,6.071-9.283,12.279c-5.373-4.062-8.853-10.502-8.853-17.742c0-12.258,9.974-22.23,22.231-22.23   c12.259,0,22.231,9.973,22.231,22.23C49.577,34.498,46.178,40.867,40.915,44.937z"/></g></svg>